HIERARCHY
ROOT Hips
{
	OFFSET 0.000000 0.000000 0.000000 
	CHANNELS 6 Xposition Yposition Zposition Zrotation Yrotation Xrotation
	JOINT LeftUpLeg
	{
		OFFSET 1.363060 -1.794630 0.839290 
		CHANNELS 3 Zrotation Yrotation Xrotation
		JOINT LeftLeg
		{
			OFFSET 2.448110 -6.726130 0.000000 
			CHANNELS 3 Zrotation Yrotation Xrotation
			JOINT LeftFoot
			{
				OFFSET 2.562200 -7.039590 0.000000 
				CHANNELS 3 Zrotation Yrotation Xrotation
				JOINT LeftToeBase
				{
					OFFSET 0.157640 -0.433110 2.322550 
					CHANNELS 3 Zrotation Yrotation Xrotation
					End Site
					{
						OFFSET 0.000000 0.000000 0.000000 
					}
				}
			}
		}
	}
	JOINT RightUpLeg
	{
		OFFSET -1.305520 -1.794630 0.839290 
		CHANNELS 3 Zrotation Yrotation Xrotation
		JOINT RightLeg
		{
			OFFSET -2.542530 -6.985550 0.000000 
			CHANNELS 3 Zrotation Yrotation Xrotation
			JOINT RightFoot
			{
				OFFSET -2.568260 -7.056230 0.000000 
				CHANNELS 3 Zrotation Yrotation Xrotation
				JOINT RightToeBase
				{
					OFFSET -0.164730 -0.452590 2.363150 
					CHANNELS 3 Zrotation Yrotation Xrotation
					End Site
					{
						OFFSET 0.000000 0.000000 0.000000 
					}
				}
			}
		}
	}
	JOINT Spine
	{
		OFFSET 0.028270 2.035590 -0.193380 
		CHANNELS 3 Zrotation Yrotation Xrotation
		JOINT Spine1
		{
			OFFSET 0.056720 2.048850 -0.042750 
			CHANNELS 3 Zrotation Yrotation Xrotation
			JOINT Neck1
			{
				OFFSET -0.054170 1.746240 0.172020 
				CHANNELS 3 Zrotation Yrotation Xrotation
				JOINT Head
				{
					OFFSET 0.104070 1.761360 -0.123970 
					CHANNELS 3 Zrotation Yrotation Xrotation
					End Site
					{
						OFFSET 0.000000 0.000000 0.000000 
					}
				}
			}
			JOINT LeftArm
			{
				OFFSET 3.362410 1.200890 -0.311210 
				CHANNELS 3 Zrotation Yrotation Xrotation
				JOINT LeftForeArm
				{
					OFFSET 4.983000 -0.000000 -0.000000 
					CHANNELS 3 Zrotation Yrotation Xrotation
					JOINT LeftHand
					{
						OFFSET 3.483560 -0.000000 -0.000000 
						CHANNELS 3 Zrotation Yrotation Xrotation
						JOINT LeftHandIndex1
						{
							OFFSET 0.715260 -0.000000 -0.000000 
							CHANNELS 3 Zrotation Yrotation Xrotation
							End Site
							{
								OFFSET 0.000000 0.000000 0.000000 
							}
						}
					}
				}
			}
			JOINT RightArm
			{
				OFFSET -3.136600 1.374050 -0.404650 
				CHANNELS 3 Zrotation Yrotation Xrotation
				JOINT RightForeArm
				{
					OFFSET -5.241900 -0.000000 -0.000000 
					CHANNELS 3 Zrotation Yrotation Xrotation
					JOINT RightHand
					{
						OFFSET -3.444170 -0.000000 -0.000000 
						CHANNELS 3 Zrotation Yrotation Xrotation
						JOINT RightHandIndex1
						{
							OFFSET -0.622530 -0.000000 -0.000000 
							CHANNELS 3 Zrotation Yrotation Xrotation
							End Site
							{
								OFFSET 0.000000 0.000000 0.000000 
							}
						}
					}
				}
			}
		}
	}
}
MOTION
Frames: 15
Frame Time: 0.041667
-3.766388 16.784487 47.573183 176.098690 -10.127648 -155.941738 3.583773 -15.112540 -3.285920 -3.787760 5.107294 14.847295 7.377381 3.051538 50.549139 3.366800 -11.266400 -33.183600 7.489149 -5.314223 -58.274243 -6.844386 -18.360174 47.228133 1.367498 -7.734493 15.471850 -1.803600 8.444500 -24.072400 1.615943 -9.075104 -5.193025 6.172028 -5.199546 -7.708834 3.714426 2.663320 2.732404 -0.815700 1.059100 5.286200 -78.523505 -16.063610 40.605817 138.196549 -41.052616 -106.247167 -0.570891 -0.315567 -9.317508 -7.125000 0.000000 0.000000 80.725348 -49.713062 36.497296 -68.651306 57.964843 -53.764191 1.141642 2.775876 -11.266456 7.125000 0.000000 0.000000 
-3.742842 16.797381 47.209461 176.073019 -9.590995 -155.337523 4.091852 -15.350461 -3.556717 -3.411198 5.425406 14.193103 6.935492 7.736675 54.050240 1.106100 -6.682300 -18.777400 7.282876 -4.502510 -58.015083 -7.119222 -18.651329 48.128091 1.650660 -8.095143 13.911160 -1.565000 7.894200 -22.393300 1.631836 -8.976574 -5.273888 6.355006 -5.129832 -8.138681 3.644231 2.933824 2.638565 -0.846500 1.177700 5.320300 -78.481501 -15.872596 40.944523 139.381296 -39.936892 -107.052055 -0.562754 -0.294156 -9.186199 -7.125000 0.000000 0.000000 80.603249 -49.993519 36.306501 -68.806170 57.972362 -53.972856 1.119509 2.798321 -11.789621 7.125000 0.000000 0.000000 
-3.718063 16.827766 46.841814 176.236653 -9.053902 -154.848723 4.406668 -15.583772 -3.937777 -3.219327 5.707947 14.487910 7.174947 8.877645 56.226445 0.970000 -6.270400 -17.571100 7.357632 -3.822871 -57.808093 -7.393491 -18.838076 48.755421 2.478542 -9.623382 12.401979 -1.980100 8.824600 -25.248200 1.633053 -8.839681 -5.292697 6.266022 -5.067231 -8.184976 3.606403 3.161395 2.529660 -0.853300 1.283800 5.347200 -78.255952 -15.888560 41.361310 140.203274 -39.133302 -107.586966 -0.563482 -0.323829 -8.829712 -7.125000 0.000000 0.000000 80.946264 -49.702786 35.813138 -68.485561 57.830473 -53.686520 1.107170 2.795919 -12.103242 7.125000 0.000000 0.000000 
-3.695079 16.838754 46.483025 176.384719 -8.449406 -154.385273 4.594081 -15.533332 -4.399531 -3.000890 6.052026 15.051541 7.604244 9.531128 58.548393 0.850600 -5.882200 -16.443100 7.360532 -3.118124 -57.633184 -7.638012 -19.018265 49.442389 2.968713 -10.470139 11.209780 -2.410300 9.672900 -27.923900 1.595649 -8.525930 -5.294076 6.045772 -4.924821 -8.137919 3.570894 3.225203 2.450729 -0.876400 1.311400 5.520600 -78.045414 -15.979333 42.156692 140.739553 -38.589144 -107.894062 -0.559988 -0.333873 -8.550148 -7.125000 0.000000 0.000000 82.095217 -49.014727 34.534046 -67.893002 57.555879 -53.102476 1.099933 2.798537 -12.257793 7.125000 0.000000 0.000000 
-3.669963 16.866448 46.127263 176.448356 -7.828780 -154.272999 4.431110 -14.441387 -5.085283 -2.671777 6.581750 16.269727 8.114845 9.480002 60.775505 0.486500 -4.472500 -12.410000 7.247875 -2.605668 -56.857850 -7.799929 -19.129640 50.082565 2.834750 -10.096357 10.589895 -1.814000 8.467400 -24.143000 1.577005 -8.286185 -5.264961 6.100546 -4.770224 -8.274473 3.570663 3.350278 2.130843 -0.816700 1.370000 5.302500 -78.640339 -15.411774 42.858894 140.254446 -39.193528 -107.445235 -0.567081 -0.298575 -8.243589 -7.125000 0.000000 0.000000 83.205348 -47.668009 33.353209 -66.664719 57.020375 -51.872234 1.153118 2.825528 -11.597926 7.125000 0.000000 0.000000 
-3.644624 16.885733 45.770941 176.561243 -7.173168 -154.111076 4.179214 -13.387072 -5.779568 -2.108547 7.331143 17.863924 8.342755 10.092340 62.309360 0.174200 -2.688600 -7.413000 7.178814 -1.980409 -56.196627 -7.982290 -19.231090 50.675638 3.059346 -10.430539 9.523864 -1.765800 8.360200 -23.813500 1.549939 -8.003685 -5.248702 6.026002 -4.608677 -8.360634 3.540771 3.452457 1.906704 -0.802200 1.417400 5.225100 -78.980706 -15.045897 43.564762 140.156495 -39.369355 -107.281084 -0.567553 -0.280117 -7.906096 -7.125000 0.000000 0.000000 84.231945 -46.619215 32.261825 -65.845400 56.639377 -51.025674 1.193643 2.839319 -11.339439 7.125000 0.000000 0.000000 
-3.618051 16.906139 45.416188 176.703548 -6.508566 -154.061968 3.734639 -12.008574 -6.576860 -1.391028 8.199627 19.934783 8.438540 10.268437 63.305948 0.026100 -1.043200 -2.867600 7.152305 -1.389238 -55.396447 -8.134406 -19.287566 51.203739 3.240659 -10.686068 8.445123 -1.726300 8.271100 -23.540500 1.517787 -7.687310 -5.218564 5.916822 -4.427816 -8.429593 3.510199 3.524004 1.655348 -0.784100 1.452000 5.111400 -79.489473 -14.546790 44.277050 139.732322 -39.884332 -106.873666 -0.569243 -0.253074 -7.571343 -7.125000 0.000000 0.000000 85.385719 -45.313348 31.109155 -64.917073 56.202781 -50.037254 1.256178 2.854282 -10.974930 7.125000 0.000000 0.000000 
-3.589796 16.927442 45.062893 176.877495 -5.866274 -154.101193 3.174922 -10.444091 -7.449973 -0.536861 9.125348 22.299814 8.378569 10.281834 63.776407 0.008400 0.592700 1.628600 7.192559 -0.846138 -54.453749 -8.236633 -19.290661 51.610695 3.384323 -10.879143 7.373466 -1.688200 8.184000 -23.274300 1.485273 -7.344141 -5.181108 5.795385 -4.232103 -8.513467 3.475015 3.569262 1.386995 -0.765100 1.475000 4.969000 -80.180973 -13.882818 44.955338 138.959702 -40.733293 -106.204460 -0.573929 -0.216462 -7.266499 -7.125000 0.000000 0.000000 86.587476 -43.791016 29.967820 -63.928111 55.726917 -48.958521 1.340783 2.866497 -10.575922 7.125000 0.000000 0.000000 
-3.559524 16.951212 44.709822 177.097243 -5.251578 -154.228721 2.500830 -8.785368 -8.426343 0.483492 10.137625 25.132634 8.106268 10.035178 63.615319 0.101400 2.053000 5.652100 7.327488 -0.354188 -53.380585 -8.294250 -19.235841 51.902878 3.528916 -11.083967 6.265524 -1.672100 8.146800 -23.161000 1.454875 -6.980720 -5.133024 5.650120 -4.028565 -8.572488 3.435150 3.592013 1.111414 -0.748100 1.489000 4.800700 -81.011977 -13.080718 45.537175 137.794275 -41.908505 -105.241047 -0.584756 -0.175207 -7.021751 -7.125000 0.000000 0.000000 87.785046 -42.044252 28.904681 -62.902863 55.225401 -47.815808 1.445569 2.871624 -10.212362 7.125000 0.000000 0.000000 
-3.527345 16.977561 44.356303 177.364953 -4.676546 -154.427552 1.762592 -7.165892 -9.522713 1.632883 11.200754 28.442726 7.624539 9.415249 62.793288 0.238200 3.141200 8.672000 7.574950 0.077891 -52.198500 -8.304868 -19.119265 52.066000 3.701905 -11.353884 5.125522 -1.707600 8.228600 -23.410500 1.428387 -6.595821 -5.077133 5.481352 -3.818390 -8.604446 3.387725 3.590472 0.846545 -0.737900 1.492000 4.628200 -81.942639 -12.161592 45.984745 136.176287 -43.390700 -103.936872 -0.603209 -0.132794 -6.866751 -7.125000 0.000000 0.000000 88.940363 -40.087080 27.953551 -61.872747 54.710150 -46.647627 1.564296 2.868040 -9.948482 7.125000 0.000000 0.000000 
-3.493148 17.006600 44.001887 177.673159 -4.156712 -154.672617 1.036959 -5.709422 -10.748565 2.837673 12.261916 32.147330 6.995040 8.346282 61.368936 0.341100 3.753000 10.382900 7.934894 0.423231 -50.909719 -8.242100 -18.927188 52.015738 3.905024 -11.696593 4.052662 -1.779600 8.391100 -23.908600 1.410007 -6.205543 -5.016877 5.314339 -3.609936 -8.617050 3.336051 3.573883 0.602007 -0.731300 1.488300 4.453600 -82.932768 -11.141297 46.261953 134.030573 -45.148490 -102.231225 -0.632725 -0.093381 -6.845374 -7.125000 0.000000 0.000000 89.979156 -37.949281 27.177159 -60.856179 54.190294 -45.484294 1.689010 2.853823 -9.814994 7.125000 0.000000 0.000000 
-3.457269 17.037994 43.646461 178.002089 -3.697398 -154.955973 0.351389 -4.475978 -12.142226 4.096204 13.335913 36.330960 6.267254 6.816496 59.326308 0.341800 3.756900 10.393600 8.392613 0.677095 -49.550780 -8.131150 -18.675604 51.822530 4.144493 -12.115642 3.022830 -1.873100 8.596600 -24.541500 1.398805 -5.812973 -4.954594 5.145684 -3.405057 -8.610421 3.279607 3.540351 0.390585 -0.729900 1.476100 4.293900 -83.922612 -10.058388 46.373157 131.277887 -47.123282 -100.057915 -0.673769 -0.064567 -7.040727 -7.125000 0.000000 0.000000 90.883370 -35.650502 26.582643 -59.886428 53.678894 -44.367622 1.810164 2.826456 -9.788195 7.125000 0.000000 0.000000 
-3.416793 17.113452 43.273433 178.320982 -3.304642 -155.249578 -0.219663 -3.478857 -13.698953 5.362621 14.384211 40.814494 5.552626 4.981584 56.796981 0.244000 3.178600 8.776400 8.912526 0.789649 -47.944193 -7.912451 -18.327579 51.314123 4.411517 -12.594936 2.067620 -1.966700 8.796400 -25.160500 1.394549 -5.427464 -4.891167 4.983092 -3.210459 -8.583519 3.219538 3.492056 0.217416 -0.731700 1.456300 4.154000 -84.858389 -8.948634 46.345029 127.830793 -49.235385 -97.342340 -0.728365 -0.052643 -7.547363 -7.125000 0.000000 0.000000 91.629807 -33.214688 26.191803 -59.014716 53.195415 -43.355432 1.918016 2.780837 -9.821950 7.125000 0.000000 0.000000 
-3.377550 17.150564 42.915204 178.633384 -2.974020 -155.582596 -0.700598 -2.698618 -15.491762 6.751749 15.461004 45.799634 4.885982 2.987646 53.770758 0.121800 2.250300 6.198000 9.458980 0.860861 -46.458822 -7.708019 -17.979395 50.840070 4.681719 -13.078220 1.204072 -2.047200 8.963800 -25.682100 1.393770 -5.046548 -4.827689 4.826109 -3.021877 -8.547677 3.169634 3.412891 0.079517 -0.722500 1.422300 4.025800 -85.684582 -7.828912 46.214154 123.636159 -51.366223 -94.038409 -0.796824 -0.063383 -8.405721 -7.125000 0.000000 0.000000 92.215297 -30.679014 26.006238 -58.298549 52.761000 -42.509079 2.000507 2.735634 -9.824402 7.125000 0.000000 0.000000 
-3.337186 17.187901 42.556864 178.912200 -2.692210 -155.927788 -1.048074 -2.096608 -17.506008 8.253673 16.514937 51.076789 4.335473 1.041945 50.458221 0.037000 1.240800 3.411700 9.994652 0.858197 -44.933691 -7.465234 -17.600521 50.246589 4.948467 -13.555783 0.437476 -2.112000 9.095600 -26.094900 1.395050 -4.672577 -4.769495 4.669464 -2.839713 -8.524482 3.111010 3.327157 -0.012509 -0.720500 1.382900 3.929900 -86.359884 -6.672456 46.045578 118.737037 -53.354883 -90.172920 -0.872541 -0.096732 -9.601459 -7.125000 0.000000 0.000000 92.639376 -28.101939 26.039846 -57.828645 52.404956 -41.917957 2.049890 2.723412 -9.713817 7.125000 0.000000 0.000000 
